<?xml version="1.0" encoding="utf-8"?>
<!-- Generator: Adobe Illustrator 21.1.0, SVG Export Plug-In . SVG Version: 6.00 Build 0)  -->
<svg version="1.1" id="Layer_1" xmlns="http://www.w3.org/2000/svg" xmlns:xlink="http://www.w3.org/1999/xlink" x="0px" y="0px"
	 width="22px" height="22px" viewBox="0 0 22 22" style="enable-background:new 0 0 22 22;" xml:space="preserve">
<style type="text/css">
	.st0{fill:#59BD5A;}
</style>
<path class="st0" d="M8.3,0c4.5,0,8.2,3.6,8.2,8.2c0,2.1-0.8,4-2,5.3L22,21l-0.9,0.9l-7.5-7.5c-1.5,1.2-3.4,2-5.4,2
	C3.7,16.4,0,12.8,0,8.2C0,3.7,3.7,0,8.3,0z M1.2,8.2c0,3.9,3.2,7,7,7c3.9,0,7-3.1,7-7s-3.1-7-7-7S1.2,4.4,1.2,8.2z"/>
</svg>
